<?xml version="1.0" encoding="utf-8"?>
<!-- Generator: Adobe Illustrator 25.0.1, SVG Export Plug-In . SVG Version: 6.00 Build 0)  -->
<svg version="1.0" id="katman_1" xmlns="http://www.w3.org/2000/svg" xmlns:xlink="http://www.w3.org/1999/xlink" x="0px" y="0px"
	 viewBox="0 0 560 400" style="enable-background:new 0 0 560 400;" xml:space="preserve">
<style type="text/css">
	.st0{fill-rule:evenodd;clip-rule:evenodd;fill:#404041;}
	.st1{fill-rule:evenodd;clip-rule:evenodd;fill:#0090BA;}
</style>
<g>
	<path class="st0" d="M394.5,235.2c-16.2,0-26.3-9.4-26.3-24.6c0-15.8,9.3-25.6,24.3-25.6l1.3,0c1.9,0,4.5,0.1,8,0.5v-19.1h10.6
		v67.1C412.4,233.4,402.3,235.2,394.5,235.2z M394.4,193.3c-10.3,0-15.3,5.6-15.3,17c0,10.3,6,16.6,15.7,16.6c1.9,0,4-0.1,6.9-0.4
		V194C398.8,193.5,396.5,193.3,394.4,193.3z"/>
	<path class="st0" d="M249.3,233.6l-28.6-50.1l0,50.1h-10v-63.4h14l28.6,49.7l0-49.7h10.1v63.4H249.3z"/>
	<path class="st0" d="M340.5,234.6c-4.8,0-9.9-0.5-15.8-1.7l-0.6-0.1v-8.9l0.9,0.2c5.3,1.1,9.8,2.1,14.4,2.1c3.7,0,12.3-0.6,12.3-6
		c0-4.6-5.9-5.7-10.7-6.6l-0.3-0.1c-0.9-0.2-1.7-0.3-2.4-0.5c-7-1.8-14.4-4.5-14.4-13.9c0-9.1,7.2-14.4,19.8-14.4
		c6,0,10.4,0.7,14,1.2l1.7,0.3v8.6l-0.9-0.2c-4-0.7-8.7-1.5-13.2-1.5c-5,0-10.9,0.9-10.9,5.4c0,3.7,4.9,4.8,10.5,6
		c7.9,1.7,17.6,3.9,17.6,14.6C362.4,228.9,354.4,234.6,340.5,234.6z"/>
	<path class="st0" d="M442.1,234.6c-11,0-21.1-1.9-21.1-16c0-15.3,15.7-15.3,25.1-15.3c0.9,0,5.4,0.2,6.7,0.3
		c0-8.6-0.1-10.6-12.5-10.6c-4.9,0-10.4,1-15.2,1.8l-0.9,0.2v-8.5l0.6-0.1c5.6-1.1,11-1.7,16.5-1.7c12,0,22.2,1.2,22.2,16.2v32.6
		l-0.7,0.1C454.4,234.5,447.8,234.6,442.1,234.6z M445.8,210.9c-9.1,0-14.7,1.3-14.7,8c0,7.7,7.2,8.3,13.9,8.3c2.5,0,7-0.3,8.4-0.4
		v-15.6C451.5,211.1,446.4,210.9,445.8,210.9z"/>
	<path class="st0" d="M293.4,234.6c-11,0-21.1-1.9-21.1-16c0-15.3,15.7-15.3,25.1-15.3c0.9,0,5.4,0.2,6.7,0.3
		c0-8.6-0.1-10.6-12.5-10.6c-4.9,0-10.4,1-15.2,1.8l-0.9,0.2v-8.5l0.6-0.1c5.6-1.1,11-1.7,16.5-1.7c12,0,22.2,1.2,22.2,16.2v32.6
		l-0.7,0.1C305.6,234.5,299,234.6,293.4,234.6z M297.1,210.9c-9.1,0-14.7,1.3-14.7,8c0,7.7,7.2,8.3,13.9,8.3c2.5,0,7-0.3,8.4-0.4
		v-15.6C302.7,211.1,297.7,210.9,297.1,210.9z"/>
	<path class="st0" d="M505.7,255.2v-20.8c-4.1,0.6-6.3,0.6-8.1,0.6c-4.2,0-8.9-0.9-12.5-2.5c-8.1-3.4-12.9-11.9-12.9-22.9
		c0-5.5,1.3-15.5,10.2-20.9c4.5-2.7,9.8-3.8,17.7-3.8c2.8,0,6.7,0.2,10.4,0.4l6,0.3v64.7L505.7,255.2z M499.3,193.2
		c-10.8,0-16.2,5.5-16.2,16.4c0,14,8.2,16.9,15,16.9c1.7,0,3.5,0,7.7-0.5v-32.4C502.5,193.3,501,193.2,499.3,193.2z"/>
	<path class="st1" d="M163.3,132.6l-35.1,96.6c-0.9,2.4-3,4.1-5.6,4.4v0.1h37.1c2.9,0,5.4-1.9,6.3-4.4l35.1-96.6H163.3z
		 M119.6,232.2c2.1,0,4-1.1,5.2-2.7c0.1-0.2,0.5-0.8,0.8-1.6l12.9-35.4l-7.5-20.7c-1-2.3-3.2-3.9-5.9-3.9c-2.1,0-4,1.1-5.2,2.7
		c-0.1,0.2-0.6,0.9-0.8,1.6l-12.9,35.4l7.6,20.8C114.8,230.6,117,232.2,119.6,232.2z M84.9,166.4h37.5v0c-2.8,0.1-5.1,1.9-6,4.4
		l-35.1,96.6H43.5l35.1-96.6C79.5,168.2,82,166.4,84.9,166.4z"/>
</g>
</svg>
